<svg width="81" height="61" viewBox="0 0 81 61" fill="none" xmlns="http://www.w3.org/2000/svg">
<path d="M12.6562 0C9.2996 0 6.08044 1.33891 3.70693 3.72218C1.33342 6.10546 0 9.33787 0 12.7083V48.2917C0 51.6621 1.33342 54.8945 3.70693 57.2778C6.08044 59.6611 9.2996 61 12.6562 61H68.3438C71.7004 61 74.9196 59.6611 77.2931 57.2778C79.6666 54.8945 81 51.6621 81 48.2917V12.7083C81 9.33787 79.6666 6.10546 77.2931 3.72218C74.9196 1.33891 71.7004 0 68.3438 0H12.6562ZM5.0625 12.7083C5.0625 10.6861 5.86255 8.74661 7.28666 7.31664C8.71076 5.88668 10.6423 5.08333 12.6562 5.08333H68.3438C70.3577 5.08333 72.2892 5.88668 73.7133 7.31664C75.1374 8.74661 75.9375 10.6861 75.9375 12.7083V48.2917C75.9375 50.3139 75.1374 52.2534 73.7133 53.6834C72.2892 55.1133 70.3577 55.9167 68.3438 55.9167H12.6562C10.6423 55.9167 8.71076 55.1133 7.28666 53.6834C5.86255 52.2534 5.0625 50.3139 5.0625 48.2917V12.7083ZM12.6562 10.1667C11.9849 10.1667 11.3411 10.4344 10.8664 10.9111C10.3917 11.3878 10.125 12.0342 10.125 12.7083C10.125 13.3824 10.3917 14.0289 10.8664 14.5056C11.3411 14.9822 11.9849 15.25 12.6562 15.25H37.9688C38.6401 15.25 39.2839 14.9822 39.7586 14.5056C40.2333 14.0289 40.5 13.3824 40.5 12.7083C40.5 12.0342 40.2333 11.3878 39.7586 10.9111C39.2839 10.4344 38.6401 10.1667 37.9688 10.1667H12.6562ZM12.6562 20.3333C11.9849 20.3333 11.3411 20.6011 10.8664 21.0778C10.3917 21.5544 10.125 22.2009 10.125 22.875C10.125 23.5491 10.3917 24.1956 10.8664 24.6722C11.3411 25.1489 11.9849 25.4167 12.6562 25.4167H53.1562C53.8276 25.4167 54.4714 25.1489 54.9461 24.6722C55.4208 24.1956 55.6875 23.5491 55.6875 22.875C55.6875 22.2009 55.4208 21.5544 54.9461 21.0778C54.4714 20.6011 53.8276 20.3333 53.1562 20.3333H12.6562ZM15.1875 35.5833C13.8448 35.5833 12.5572 36.1189 11.6078 37.0722C10.6584 38.0255 10.125 39.3185 10.125 40.6667V45.75C10.125 47.0982 10.6584 48.3912 11.6078 49.3445C12.5572 50.2978 13.8448 50.8333 15.1875 50.8333H35.4375C36.7802 50.8333 38.0678 50.2978 39.0172 49.3445C39.9666 48.3912 40.5 47.0982 40.5 45.75V40.6667C40.5 39.3185 39.9666 38.0255 39.0172 37.0722C38.0678 36.1189 36.7802 35.5833 35.4375 35.5833H15.1875Z" fill="black"/>
</svg>
