<svg width="82" height="67" viewBox="0 0 82 67" fill="none" xmlns="http://www.w3.org/2000/svg">
<path d="M0 47C0 58.0457 8.95431 67 20 67H62C73.0457 67 82 58.0457 82 47V20C82 8.9543 73.0457 0 62 0H20C8.95431 0 0 8.9543 0 20V47ZM3.72727 23.7222C3.72727 12.6765 12.6816 3.72222 23.7273 3.72222H58.2727C69.3184 3.72222 78.2727 12.6765 78.2727 23.7222V43.2778C78.2727 54.3235 69.3184 63.2778 58.2727 63.2778H23.7273C12.6816 63.2778 3.72727 54.3235 3.72727 43.2778V23.7222ZM67.0909 13.0278C67.0909 14.0556 66.2577 14.8889 65.2298 14.8889H16.7702C15.7423 14.8889 14.9091 14.0556 14.9091 13.0278C14.9091 11.9999 15.7423 11.1667 16.7702 11.1667H65.2298C66.2577 11.1667 67.0909 11.9999 67.0909 13.0278ZM27.952 22.3333C26.9242 22.3333 26.0909 21.5001 26.0909 20.4722C26.0909 19.4444 26.9242 18.6111 27.952 18.6111H54.048C55.0758 18.6111 55.9091 19.4444 55.9091 20.4722C55.9091 21.5001 55.0758 22.3333 54.048 22.3333H27.952ZM70.6623 46.5199C70.8337 45.5058 71.6516 44.6667 72.68 44.6667C73.7098 44.6667 74.5562 45.5056 74.4257 46.5271C74.1043 49.0414 73.1427 51.4431 71.6192 53.4962C69.7232 56.051 67.0569 57.9315 64.0118 58.8614C60.9668 59.7912 57.7033 59.7215 54.7008 58.6624C51.6983 57.6034 49.115 55.6108 47.3302 52.9773C45.5454 50.3438 44.6533 47.2081 44.7847 44.0309C44.9162 40.8536 46.0643 37.8022 48.0605 35.3247C50.0568 32.8472 52.7959 31.0742 55.8756 30.2661C58.3532 29.616 60.9461 29.6179 63.4053 30.2565C64.3995 30.5147 64.864 31.6084 64.4848 32.563C64.1047 33.5197 63.0205 33.9693 62.0145 33.7506C60.304 33.3788 58.5211 33.4115 56.8106 33.8576C54.4951 34.4615 52.4348 35.7914 50.9324 37.6518C49.4301 39.5121 48.565 41.8047 48.4644 44.1925C48.3638 46.5803 49.0331 48.9374 50.3737 50.9171C51.7143 52.8969 53.6555 54.3949 55.912 55.1909C58.1686 55.9869 60.6213 56.0389 62.9096 55.3393C65.198 54.6397 67.2012 53.2254 68.6248 51.3043C69.6766 49.8848 70.371 48.244 70.6623 46.5199ZM71.9103 33.6661C72.6416 32.9448 73.8188 32.9513 74.542 33.6808C75.2679 34.4129 75.2613 35.5954 74.5272 36.3194L63.2711 47.4209C61.2551 49.4092 58.0128 49.3991 56.0092 47.3983L53.6764 45.0686C52.948 44.3412 52.948 43.1608 53.6764 42.4334C54.4034 41.7074 55.581 41.7074 56.308 42.4334L57.3252 43.4493C58.6086 44.7309 60.6855 44.7373 61.9768 43.4637L71.9103 33.6661ZM11.1818 46.5278C11.1818 45.4999 12.0151 44.6667 13.0429 44.6667H27.9571C28.9849 44.6667 29.8182 45.4999 29.8182 46.5278C29.8182 47.5556 28.9849 48.3889 27.9571 48.3889H13.0429C12.0151 48.3889 11.1818 47.5556 11.1818 46.5278Z" fill="black"/>
</svg>
