<svg width="82" height="90" viewBox="0 0 82 90" fill="none" xmlns="http://www.w3.org/2000/svg">
<path d="M35.9111 4.2877e-07C44.6307 -0.00134812 53.0529 3.17838 59.6057 8.94572C65.0465 13.7343 68.8899 20.0351 70.6834 26.9977C71.411 29.8219 72.3317 32.6187 73.8936 35.0817L81.6214 47.268C82.2857 48.3165 82.151 49.878 80.6115 50.544C75.277 52.8318 71.8186 58.078 71.8186 63.8824V67.5C71.8186 69.8869 70.8729 72.1761 69.1894 73.864C67.5059 75.5518 65.2226 76.5 62.8418 76.5H60.6194C56.8911 76.5 53.8684 79.5217 53.8671 83.25C53.8659 86.9783 50.8432 90 47.1149 90H30.0919C20.9113 90 13.4689 82.5576 13.4689 73.377C13.4689 68.067 11.512 63.0405 7.88083 58.5045C3.65139 53.2101 0.999963 46.8253 0.232053 40.086C-0.535857 33.3466 0.610996 26.5269 3.54047 20.4125C6.46995 14.2981 11.0628 9.13796 16.79 5.52651C22.5171 1.91507 29.1454 -0.000680269 35.9111 4.2877e-07ZM33.5323 25.9335C32.0511 24.4987 30.0672 23.7045 28.0077 23.7221C25.9482 23.7396 23.9779 24.5674 22.5213 26.0272C21.0646 27.487 20.2382 29.462 20.2199 31.5268C20.2015 33.5916 20.9929 35.581 22.4234 37.0665C29.8661 44.5309 41.9562 44.5309 49.3989 37.0665C50.1489 36.3399 50.7472 35.4708 51.1586 34.51C51.5701 33.5491 51.7866 32.5157 51.7954 31.47C51.8043 30.4244 51.6053 29.3875 51.2102 28.4198C50.815 27.452 50.2316 26.5729 49.494 25.8336C48.7563 25.0944 47.8792 24.5098 46.9138 24.114C45.9484 23.7183 44.914 23.5192 43.8711 23.5285C42.8282 23.5378 41.7975 23.7553 40.8393 24.1682C39.881 24.5811 39.0144 25.1812 38.29 25.9335C36.9772 27.2497 34.8451 27.2497 33.5323 25.9335Z" fill="black"/>
</svg>
