<svg width="81" height="73" viewBox="0 0 81 73" fill="none" xmlns="http://www.w3.org/2000/svg">
<path d="M6.25819 1.15617C4.93653 0.461917 3.32186 0.6678 2.2167 1.67149C0.935947 2.83465 0.679049 4.75115 1.60826 6.21054L5.69366 12.627C6.58007 14.0191 8.19382 14.7704 9.8298 14.5525C11.0678 14.3876 12.3156 14.7769 13.2402 15.6167L37.7039 37.8367C38.966 38.983 38.9459 40.9737 37.6609 42.0943C36.4249 43.2169 36.4249 44.9175 37.6609 46.04L38.9155 47.1821C39.2415 47.4782 39.613 47.6962 40.0004 47.8361C41.6589 48.4349 44.0615 48.173 45.3673 49.3579C46.159 50.0763 46.4623 51.1603 46.5564 52.2252C46.6632 53.4352 47.143 54.6542 48.1855 55.601L64.89 70.6848C68.289 73.7717 73.8511 73.7717 77.2501 70.6848C81.2671 67.3173 81.23 62.2828 77.831 59.1959L61.2222 44.0223C60.1584 43.0562 58.7827 42.4892 57.4237 42.4129C56.2853 42.349 55.091 42.1848 54.2098 41.4613C52.7492 40.2621 52.8825 37.7169 51.9414 36.078C51.8397 35.901 51.7135 35.7407 51.5629 35.6034L50.4041 34.5538C50.1232 34.2878 49.786 34.0761 49.4127 33.9315C49.0393 33.7869 48.6377 33.7123 48.2318 33.7123C47.826 33.7123 47.4243 33.7869 47.051 33.9315C46.6777 34.0761 46.3405 34.2878 46.0596 34.5538C44.9099 35.598 43.1552 35.598 42.0055 34.5538L17.0965 11.9319C16.2505 11.1636 15.8493 10.0201 16.0299 8.89157C16.2595 7.45702 15.548 6.03598 14.2618 5.36037L6.25819 1.15617ZM64.3122 0.086995C58.2156 -0.373236 50.1322 3.29739 46.35 6.48814C42.7202 9.78467 42.3842 13.8717 44.1673 18.0421C45.0808 20.1786 44.8701 22.7426 43.1504 24.3051L42.2163 25.1538C40.7831 26.456 40.7179 28.6879 42.0726 30.0716C43.2969 31.3221 45.2788 31.3442 46.9876 30.9663C48.9879 30.5239 51.165 30.9592 52.8174 32.2723L54.075 33.4117C54.2398 33.5613 54.4912 33.5613 54.656 33.4117L55.8879 32.2928C56.5964 31.6494 57.6287 31.5318 58.501 31.9256C63.6367 34.2439 68.8491 34.2894 72.9055 30.6054C74.675 29.1132 76.5054 26.7261 77.9029 24.061C80.5688 18.977 75.2558 16.8549 71.07 20.7834C69.834 21.9059 67.9615 21.9059 66.7255 20.7834L57.7429 12.6283C57.4499 12.3732 57.2169 12.0669 57.0576 11.7279C56.8984 11.3888 56.8163 11.0241 56.8163 10.6555C56.8163 10.2869 56.8984 9.92212 57.0576 9.58309C57.2169 9.24405 57.4499 8.93777 57.7429 8.68266L64.9055 2.18214C65.7154 1.44713 65.4027 0.171278 64.3122 0.086995ZM32.7655 37.2976C31.3797 36.039 29.2646 36.0389 27.8785 37.2973L21.8506 42.7703C20.1321 44.3305 17.771 44.8839 15.45 44.9006C6.798 44.9006 0 51.0745 0 58.9321C0 66.7897 6.798 72.9635 15.45 72.9635C24.102 72.9635 30.9 66.7897 30.9 58.9321C30.9 58.7204 30.8946 58.51 30.884 58.3008C30.7744 56.1357 31.2566 53.8712 32.8615 52.4137L35.6847 49.8497C36.3011 49.2899 36.3633 48.3425 35.8255 47.7069C34.4057 46.4175 33.8075 44.7468 33.9652 43.1322C34.1644 41.0934 34.282 38.6748 32.7655 37.2976ZM54.2697 47.8837C54.656 47.8837 55.0206 47.9511 55.3296 48.2345L73.5822 64.8084C74.2002 65.3697 74.2002 66.2621 73.5822 66.8234C72.9642 67.3846 71.9754 67.3846 71.3574 66.8234L53.111 50.2494C52.493 49.6882 52.493 48.7958 53.111 48.2345C53.42 47.9539 53.8835 47.8837 54.2697 47.8837ZM14.0282 52.5043C16.2474 51.9698 18.5873 52.5687 20.2767 54.1038L20.5533 54.3551C22.335 55.9741 23.0371 58.4676 22.362 60.7784C21.7296 62.943 19.9874 64.6039 17.795 65.1322L16.8749 65.3539C14.6557 65.8887 12.3156 65.2901 10.6257 63.7554L10.3477 63.5029C8.5655 61.8843 7.86297 59.3907 8.53811 57.0798C9.17046 54.9154 10.9125 53.2548 13.1047 52.7268L14.0282 52.5043Z" fill="black"/>
</svg>
