<svg width="82" height="99" viewBox="0 0 82 99" fill="none" xmlns="http://www.w3.org/2000/svg">
<path d="M46.8925 28.5455C50.0169 28.5455 52.852 30.3745 54.1398 33.2211C56.5221 38.4865 52.6718 44.4545 46.8925 44.4545H34.5992C28.9523 44.4545 25.1035 38.7348 27.2305 33.5038C28.4495 30.506 31.3631 28.5455 34.5992 28.5455H46.8925ZM27.3333 49C24.8278 49 22.7778 51.0455 22.7778 53.5455C22.7778 56.0455 24.8278 58.0909 27.3333 58.0909C29.8389 58.0909 31.8889 56.0455 31.8889 53.5455C31.8889 51.0455 29.8389 49 27.3333 49ZM54.6667 49C52.1611 49 50.1111 51.0455 50.1111 53.5455C50.1111 56.0455 52.1611 58.0909 54.6667 58.0909C57.1722 58.0909 59.2222 56.0455 59.2222 53.5455C59.2222 51.0455 57.1722 49 54.6667 49ZM70.1077 11.9081C77.3384 15.1146 82 22.2812 82 30.191V44.4545C82 67.9817 66.785 90.0856 45.6671 97.6036C42.6507 98.6775 39.3493 98.6775 36.3329 97.6037C15.215 90.0856 0 67.9817 0 44.4545V30.191C0 22.2813 4.66162 15.1146 11.8923 11.9081L32.8923 2.59544C38.055 0.305993 43.945 0.305991 49.1077 2.59544L70.1077 11.9081ZM68.3333 53.1437C68.3333 50.4103 67.773 47.7058 66.6869 45.1974L58.4933 26.2727C57.5822 23.6364 55.0311 21.7273 52.0244 21.7273H29.2467C26.24 21.7273 23.6889 23.6364 22.7778 26.2727L15.1028 45.4176C14.1541 47.784 13.6667 50.3101 13.6667 52.8596V67.1818C13.6667 69.6818 15.7167 71.7273 18.2222 71.7273H22.7778C25.2833 71.7273 27.3333 69.6818 27.3333 67.1818C27.3333 64.6714 29.3684 62.6364 31.8788 62.6364H50.1212C52.6316 62.6364 54.6667 64.6714 54.6667 67.1818C54.6667 69.6818 56.7167 71.7273 59.2222 71.7273H63.7778C66.2833 71.7273 68.3333 69.6818 68.3333 67.1818V53.1437Z" fill="black"/>
</svg>
