<svg width="70" height="72" viewBox="0 0 70 72" fill="none" xmlns="http://www.w3.org/2000/svg">
<path d="M53.42 15.0533L42.8233 0.196655L3.86 31.3233L1.7 31.3V31.3333H0V71.3333H70V31.3333H66.7933L60.4133 12.67L53.42 15.0533ZM59.75 31.3333H26.3233L51.22 22.8467L56.2933 21.2233L59.75 31.3333ZM46.8333 17.3L21.1333 26.06L41.4867 9.79999L46.8333 17.3ZM6.66667 58.5633V44.0967C8.07392 43.6 9.35217 42.7947 10.4077 41.7397C11.4632 40.6848 12.2692 39.407 12.7667 38H57.2333C57.7303 39.4076 58.5362 40.6861 59.5917 41.7416C60.6473 42.7971 61.9257 43.603 63.3333 44.1V58.5667C61.9257 59.0637 60.6473 59.8695 59.5917 60.925C58.5362 61.9806 57.7303 63.2591 57.2333 64.6666H12.7733C12.2739 63.2589 11.4665 61.9804 10.4101 60.9245C9.35358 59.8686 8.07467 59.0619 6.66667 58.5633Z" fill="black"/>
</svg>
